<svg width="20" height="18" viewBox="0 0 20 18" fill="none" xmlns="http://www.w3.org/2000/svg">
<path d="M6.2918 17.1202C13.8371 17.1202 17.9652 10.8675 17.9652 5.44679C17.9652 5.27101 17.9613 5.09132 17.9535 4.91554C18.7566 4.33479 19.4496 3.61545 20 2.79132C19.2521 3.12407 18.458 3.34139 17.6449 3.43585C18.5011 2.92266 19.1421 2.11647 19.4492 1.16671C18.6438 1.64404 17.763 1.98075 16.8445 2.16241C16.2257 1.50487 15.4075 1.0695 14.5164 0.923615C13.6253 0.777727 12.711 0.929448 11.9148 1.35532C11.1186 1.78119 10.4848 2.45749 10.1115 3.27967C9.73825 4.10184 9.64619 5.02409 9.84961 5.90382C8.21874 5.82198 6.62328 5.39833 5.16665 4.66032C3.71002 3.92232 2.42474 2.88644 1.39414 1.61984C0.870333 2.52294 0.710047 3.59161 0.945859 4.60865C1.18167 5.62569 1.79589 6.51478 2.66367 7.09523C2.01219 7.07454 1.37498 6.89914 0.804688 6.58351V6.63429C0.804104 7.58203 1.13175 8.50073 1.73192 9.23421C2.3321 9.9677 3.16777 10.4707 4.09687 10.6577C3.49338 10.8228 2.85999 10.8469 2.2457 10.728C2.50788 11.5431 3.01798 12.256 3.70481 12.7672C4.39164 13.2784 5.22093 13.5624 6.07695 13.5796C4.62369 14.7212 2.82848 15.3403 0.980469 15.3374C0.652739 15.3369 0.325333 15.3168 0 15.2773C1.87738 16.4817 4.06128 17.1214 6.2918 17.1202Z" fill="#1D2130"/>
</svg>
