<svg width="37" height="56" viewBox="0 0 37 56" fill="none" xmlns="http://www.w3.org/2000/svg">
<path fill-rule="evenodd" clip-rule="evenodd" d="M20.6983 2.72971C19.8989 0.396736 16.5994 0.396736 15.8 2.72971C15.221 4.4194 13.1435 5.0276 11.7427 3.91943C9.80971 2.39027 7.03226 4.17115 7.62203 6.56423C8.04935 8.29813 6.63088 9.93304 4.85376 9.75744C2.40146 9.51512 1.02816 12.5147 2.81825 14.2082C4.11542 15.4354 3.80757 17.5769 2.21728 18.3891C0.0223223 19.5101 0.49301 22.7752 2.91477 23.233C4.66938 23.5647 5.56868 25.5328 4.66991 27.0758C3.42959 29.2051 5.59305 31.6959 7.878 30.7731C9.53399 30.1043 11.3561 31.2732 11.4351 33.0574C11.5442 35.5203 14.7105 36.4481 16.1347 34.4357C17.1667 32.9776 19.3317 32.9776 20.3636 34.4357C21.7878 36.4481 24.9541 35.5203 25.0632 33.0574C25.1422 31.2732 26.9643 30.1043 28.6203 30.7731C30.9053 31.6959 33.0687 29.2051 31.8284 27.0758C30.9296 25.5328 31.8289 23.5647 33.5836 23.233C36.0053 22.7752 36.476 19.5101 34.2811 18.3891C32.6908 17.5769 32.3829 15.4354 33.6801 14.2082C35.4702 12.5147 34.0969 9.51512 31.6446 9.75744C29.8675 9.93304 28.449 8.29813 28.8763 6.56423C29.4661 4.17115 26.6886 2.39027 24.7557 3.91943C23.3549 5.0276 21.2773 4.4194 20.6983 2.72971ZM18.2492 28.5481C23.772 28.5481 28.2492 24.0756 28.2492 18.5584C28.2492 13.0413 23.772 8.56878 18.2492 8.56878C12.7263 8.56878 8.24917 13.0413 8.24917 18.5584C8.24917 24.0756 12.7263 28.5481 18.2492 28.5481ZM24.249 18.5584C24.249 21.8687 21.5627 24.5522 18.249 24.5522C14.9353 24.5522 12.249 21.8687 12.249 18.5584C12.249 15.2481 14.9353 12.5646 18.249 12.5646C21.5627 12.5646 24.249 15.2481 24.249 18.5584ZM0.249023 52.0238L7.24902 34.5419C7.83349 34.9589 8.31616 35.5818 8.79125 36.1948C9.39236 36.9706 9.98134 37.7306 10.749 38.0383C11.6101 38.3833 12.6576 38.2574 13.7375 38.1276C14.5793 38.0265 15.4408 37.9229 16.249 38.0383L9.74902 55.5201L6.74902 49.0269L0.249023 52.0238ZM36.249 52.0238L29.249 34.5419C28.6658 34.958 28.1318 35.5329 27.6018 36.1035C26.8524 36.9102 26.1109 37.7085 25.249 38.0383C24.4372 38.3488 23.5168 38.2356 22.5596 38.1179C21.8007 38.0246 21.0186 37.9284 20.249 38.0383L26.749 55.5201L29.749 49.0269L36.249 52.0238Z" fill="#70C174"/>
</svg>
