<svg width="39" height="92" viewBox="0 0 39 92" fill="none" xmlns="http://www.w3.org/2000/svg">
<path d="M38.4024 48.1143C38.3322 48.0565 38.2304 48.0382 38.1511 48.0648C38.0543 48.0946 37.9656 48.1204 37.8818 48.1449L37.8409 48.1568C37.6345 48.2172 37.4561 48.2688 37.2795 48.3397C34.4883 49.4476 32.291 51.3456 30.5615 54.1419C30.1345 54.8328 29.8037 55.551 29.5402 56.2672C29.9723 53.8581 30.0724 52.9195 30.1489 50.2238C30.1525 50.1107 30.1525 49.9956 30.1525 49.8814C30.1525 49.5696 30.1525 49.275 30.2207 49.0062C30.3025 48.6877 30.4669 48.37 30.6261 48.0626C30.6709 47.9756 30.7157 47.8886 30.7527 47.8122C30.7655 47.7972 30.8069 47.7719 30.8231 47.7694C31.6213 47.6477 32.3271 47.3091 32.9815 46.7347C33.6409 46.1529 34.1831 45.4409 34.5935 44.6176C36.0664 41.6671 36.8034 38.4058 36.7848 34.9255C36.7831 34.5898 36.7436 34.263 36.7002 33.9075C36.6805 33.7482 36.6604 33.5853 36.6437 33.4166C36.6343 33.3241 36.5772 33.2418 36.4946 33.2018C36.4131 33.1623 36.3146 33.1651 36.2322 33.2149C36.1824 33.246 36.1399 33.2713 36.1012 33.2938C36.0264 33.3383 35.9693 33.373 35.9153 33.4119C34.6589 34.3116 33.5507 35.4317 32.6212 36.7402C31.1043 38.8789 30.2221 41.2972 29.9845 43.9575C29.9609 43.661 29.9369 43.3644 29.913 43.0679L29.9046 42.9603C29.8114 41.7977 29.7152 40.5954 29.6367 39.4131C29.617 39.1137 29.5594 38.8224 29.5037 38.5406C29.3963 37.9989 29.2948 37.4873 29.4573 36.9511C29.4943 36.8299 29.5254 36.7079 29.5566 36.5862C29.6334 36.2846 30.0043 35.8202 30.5738 35.3124L30.5952 35.2932C30.8053 35.1154 31.8842 34.1293 32.4963 32.1787C33.1175 30.1971 33.0705 28.1265 33.0363 26.6145L33.0355 26.5742C32.9898 24.4958 32.765 22.9297 32.3065 21.4952C32.2473 21.3118 32.1769 21.1309 32.1023 20.9408C32.0637 20.8418 32.0241 20.7395 31.9835 20.6325C31.9501 20.5419 31.87 20.4761 31.7762 20.4605L31.7303 20.4563C31.6491 20.4563 31.5731 20.4927 31.5217 20.5556L31.0762 21.0978C28.9406 23.6998 27.8914 26.7515 27.9571 30.1684C27.9685 30.7702 28.0136 31.3875 28.0934 32.0248C27.5506 30.1534 26.9141 28.3319 26.1901 26.5795C26.1751 26.5411 26.1654 26.4936 26.1642 26.4533L26.1592 26.2137C26.1517 25.868 26.1439 25.5103 26.1587 25.1584C26.1609 25.1 26.1987 24.9953 26.2775 24.8921C26.3893 24.7446 26.5134 24.6003 26.642 24.4502C26.8609 24.1956 27.0871 23.9327 27.2663 23.6326C27.8433 22.667 28.1143 21.5264 28.1187 20.0425C28.1265 18.2957 27.8569 16.4574 27.2693 14.257C26.9483 13.0566 26.4636 11.4971 25.5611 10.0833C25.4998 9.98825 25.4314 9.89875 25.3585 9.80398C25.3257 9.76201 25.2912 9.71726 25.2561 9.66918C25.2049 9.60053 25.1343 9.56051 25.0202 9.56051C24.9292 9.56718 24.848 9.61888 24.8026 9.6992C23.6697 11.7417 23.1055 13.9238 23.0788 16.3702C23.056 18.4099 23.3748 20.1651 23.7746 21.5522C22.7571 19.6954 21.6265 17.9013 20.4009 16.1995L20.3728 16.1609C20.345 16.1239 20.3333 16.1058 20.3352 16.1186C20.2582 15.568 20.2047 15.1275 20.1677 14.744C20.1686 14.7381 20.1758 14.7059 20.2331 14.6103C20.3141 14.4724 20.4028 14.3373 20.4972 14.1945C20.6863 13.9071 20.8817 13.6097 21.0069 13.2768C21.3847 12.2718 21.4695 11.1319 21.2656 9.79342C20.8179 6.83092 19.5106 4.16332 17.2698 1.63774C17.0391 1.37843 16.7843 1.14913 16.5147 0.906774L16.4401 0.839236C16.3347 0.743905 16.2265 0.646351 16.1171 0.543238C16.0476 0.47709 15.948 0.452354 15.8514 0.480703C15.7602 0.509608 15.6898 0.585205 15.6681 0.679147L15.6191 0.893712C15.5857 1.03601 15.5598 1.1483 15.5406 1.26114C15.239 3.05937 15.261 4.98545 15.6082 7.14999C15.9527 9.29675 16.6391 11.1483 17.6921 12.7567C16.1129 10.8979 14.5769 9.33705 12.9715 7.95378C12.9643 7.94433 12.9537 7.9157 12.9529 7.90847C13.0784 6.8287 12.8118 5.81147 12.1374 4.79868C11.2519 3.46765 10.0213 2.4532 8.47994 1.78393C7.55764 1.38426 6.60194 1.03046 5.66629 0.683872C5.21807 0.517668 4.76985 0.35202 4.30828 0.17442C3.84449 -0.00984963 3.64612 -0.0426459 3.53845 0.0568543C3.39989 0.185815 3.43328 0.295878 3.49366 0.49599L3.51313 0.561303C4.07875 2.46459 4.82939 3.96988 5.80845 5.16305C7.60576 7.35566 9.70773 8.46962 12.2312 8.56801C12.3197 8.57329 12.3898 8.59775 12.4184 8.61998C12.7737 8.88569 13.0353 9.09831 13.2665 9.30898C13.9976 9.97658 14.7177 10.6878 15.4221 11.4368C14.3743 10.7865 13.0937 10.493 11.6514 10.5658C10.8621 10.6055 10.0786 10.7212 9.321 10.8329L9.29206 10.8373C9.06809 10.8701 8.84524 10.9026 8.62294 10.9341C8.13605 10.9999 7.64527 11.0861 7.2118 11.1617C7.03625 11.1931 6.61697 11.2884 6.52043 11.4916C6.48704 11.5611 6.48982 11.6372 6.52766 11.7064C6.56105 11.7667 6.59777 11.8234 6.63784 11.8751C7.889 13.4969 9.31627 14.565 11.0012 15.14C13.0556 15.8449 14.9425 15.7868 16.6379 14.9577C16.8972 14.8151 17.21 14.7429 17.5672 14.7429C17.8368 14.7429 18.0391 14.7854 18.1061 14.8007C18.2066 14.8173 18.3429 14.8735 18.3707 14.9096C19.4252 16.2946 20.4259 17.7737 21.3605 19.3276C20.5709 18.5605 19.5412 18.0433 18.1384 17.7065C16.9089 17.4138 15.6519 17.351 14.4367 17.2898L14.0296 17.2693C13.6485 17.2498 13.2673 17.2256 12.8747 17.2009L12.2165 17.1603C12.1313 17.1603 12.0504 17.2015 12.0008 17.2698C11.946 17.3435 11.9329 17.4391 11.9652 17.525C11.9916 17.5967 12.0398 17.7231 12.0645 17.7654C13.3463 19.9071 14.8515 21.3885 16.6655 22.2946C18.4389 23.1795 20.0411 23.4135 21.6573 23.0275C21.8443 22.9825 22.061 22.9586 22.285 22.9586C22.9725 22.9586 23.4519 23.1681 23.5526 23.3621C24.4418 25.1945 25.2353 27.0987 25.9197 29.0409C25.2019 28.0522 24.1981 27.2493 22.9271 26.6487C21.6646 26.0534 20.35 25.5092 19.0565 24.9736C18.5006 24.744 17.9425 24.5136 17.3869 24.2779C17.3043 24.2418 17.2066 24.2493 17.1296 24.3001C17.0539 24.3505 17.0088 24.4344 17.0088 24.5247C17.0088 24.6982 18.8534 29.8124 21.5324 31.8277C22.6253 32.6498 23.9713 33.4956 25.6687 33.5353C26.1768 33.5456 26.702 33.6173 27.0988 34.0678C27.1594 34.1395 27.2398 34.1954 27.3275 34.2252C27.463 34.2696 27.5003 34.3524 27.567 34.6348C28.1168 36.9406 28.5172 39.3172 28.7637 41.7305C28.6891 41.4856 28.6026 41.2382 28.5033 40.9878C27.9037 39.4689 26.8946 38.1398 25.3276 36.8049C24.52 36.114 23.6742 35.445 22.8562 34.7977L22.8172 34.7671C22.4447 34.4722 22.073 34.1785 21.7024 33.8811C21.6259 33.8196 21.5513 33.7563 21.4648 33.6823L21.2336 33.4845C21.1526 33.4161 21.0322 33.4019 20.9376 33.4492C20.8405 33.4984 20.7823 33.6001 20.7898 33.7087C20.8013 33.8719 20.8104 34.0261 20.8191 34.1743L20.8235 34.2435C20.8419 34.5484 20.8591 34.836 20.89 35.1201C21.1799 37.8858 22.0032 40.1949 23.4068 42.179C24.2757 43.4056 25.5221 44.9047 27.4658 45.6137C27.9387 45.7872 28.2818 46.0498 28.6493 46.5212C28.996 46.9626 29.0605 47.3658 29.0527 47.8733C29.0196 49.9993 28.868 52.1082 28.6006 54.1735C28.538 53.5988 28.4056 53.0071 28.2022 52.3923C27.7813 51.1193 27.1252 49.8817 26.1962 48.6088C25.3944 47.5065 24.56 46.4003 23.7532 45.33L23.6995 45.2585C23.3795 44.8347 23.0598 44.4103 22.7485 43.9951C22.6901 43.9097 22.6058 43.8792 22.5571 43.8622C22.4881 43.8286 22.4057 43.8252 22.3326 43.8564C22.2608 43.8869 22.2057 43.9473 22.1815 44.0212L22.172 44.0501C22.1587 44.089 22.1481 44.1235 22.1426 44.1579C21.5861 47.4726 21.9275 50.4423 23.1859 53.2377C23.8005 54.6046 24.6248 56.1521 26.0783 57.2655C26.7418 57.7739 27.2657 58.4871 27.5534 59.2733C27.6143 59.4426 27.6121 59.516 27.6052 59.5443C26.99 62.0896 26.1865 64.5446 25.2097 66.8681C25.4612 65.6436 25.4439 64.3573 25.1568 63.0246C24.7492 61.1358 24.0486 59.3053 23.4238 57.7378L23.2365 57.2683C22.9436 56.5337 22.6486 55.7933 22.344 55.026C22.3053 54.9279 22.2121 54.8609 22.0877 54.8548C21.9898 54.8548 21.8997 54.9106 21.8529 55.0012L21.7547 55.1858C21.7116 55.2667 21.6712 55.342 21.6368 55.4198C20.3797 58.2531 19.9552 61.1575 20.3756 64.0524C20.676 66.1225 21.1852 67.6047 22.0265 68.8587C22.462 69.5069 22.8757 70.2289 22.9508 71.1169C22.9686 71.327 22.9602 71.4718 22.8665 71.6367C21.8053 73.493 20.6157 75.2448 19.3128 76.8724C19.3178 76.8635 19.3225 76.8546 19.3275 76.8457C20.2648 75.1345 20.2932 73.2842 20.1975 71.6997C20.1149 70.3415 19.9591 68.9852 19.8091 67.6739L19.8005 67.598C19.7401 67.0727 19.68 66.5477 19.6252 66.0216C19.5935 65.7233 19.5582 65.4251 19.5217 65.1225L19.4736 64.7128C19.463 64.6222 19.4076 64.5438 19.3281 64.5043C19.1801 64.4271 18.9405 64.5463 18.6818 64.852C16.9036 66.9529 15.8002 69.327 15.4018 71.9088C14.9886 74.5855 15.2126 76.8763 16.0873 78.9118C16.1107 78.966 16.1102 79.0767 16.1099 79.1136L16.0629 80.2848C16.0559 80.369 16.0114 80.4641 15.9747 80.4994C14.1991 82.2076 12.2443 83.6926 10.1465 84.9285C11.1395 84.0319 11.8534 82.8621 12.3161 81.3796C12.8288 79.7365 13.092 78.0263 13.3471 76.3682L13.3694 76.2206C13.4598 75.6381 13.5541 75.0566 13.6504 74.4624L13.7592 73.7906C13.7748 73.6928 13.7361 73.595 13.6601 73.5363C13.5847 73.4763 13.4757 73.4618 13.3889 73.4991L13.294 73.5383C13.1927 73.5797 13.1045 73.6167 13.0213 73.6592C9.05558 75.6378 6.44503 80.2526 6.81395 84.6317C6.87182 85.3176 6.80894 85.9619 6.62142 86.6C6.60389 86.6581 6.54769 86.7212 6.52488 86.7318C4.64132 87.5253 2.85041 88.1042 1.04837 88.5017C0.955723 88.5231 0.882268 88.5892 0.85222 88.6784C0.821894 88.7682 0.840261 88.8657 0.902026 88.9391C1.09789 89.1709 1.26844 89.4202 1.40866 89.6812C1.46625 89.7879 1.60342 89.8427 1.70608 89.816C3.17426 89.4814 4.60403 89.0481 5.95702 88.5272C6.06636 88.4833 6.14983 88.4625 6.22801 88.4753C6.52905 88.5153 6.84706 88.577 7.20012 88.6645C7.27302 88.6823 7.33339 88.7159 7.3345 88.7129C8.10573 90.2487 9.43118 91.2271 11.3879 91.7032C11.8136 91.8052 12.2526 91.8805 12.6928 91.9266C13.1535 91.9753 13.6674 92 14.2196 92C14.9847 92 15.5303 91.9528 15.537 91.9522C17.2331 91.7626 18.6815 91.3813 19.9644 90.7863C20.4908 90.5425 21.0906 90.2143 21.5516 89.6281C21.6398 89.5158 21.6251 89.3538 21.518 89.2596C20.2148 88.1109 18.8879 87.2762 17.4609 86.7081C15.3467 85.8688 13.4209 85.6414 11.5331 86.0041C11.251 86.0589 10.9756 86.1278 10.7079 86.207C12.4738 85.1526 14.1646 83.9133 15.7613 82.5014C15.7919 82.4736 15.8422 82.4491 15.8815 82.4421C16.1427 82.3988 16.4897 82.3454 16.8447 82.3199C16.8775 82.3199 16.9192 82.3357 16.924 82.3374C17.886 83.413 19.1255 83.9358 20.7133 83.9358C20.7943 83.9358 20.8755 83.9341 20.9565 83.9313C22.6829 83.8757 24.4184 83.4019 26.1158 82.5222C27.3495 81.8793 28.6354 81.1309 29.6782 80.0147C29.9094 79.7665 30.1158 79.4858 30.2981 79.2381L30.3159 79.214C30.3965 79.1047 30.4781 78.9947 30.5618 78.886C30.6074 78.8274 30.6266 78.7517 30.6147 78.6756C30.6019 78.6022 30.5593 78.5369 30.4867 78.4897C30.4683 78.4797 30.0268 78.2431 29.6237 78.0872C26.9243 77.0452 24.1992 76.9385 21.5995 77.7754C20.7484 78.0486 19.9474 78.4588 19.1675 79.0258C20.6098 77.351 21.9453 75.5149 23.1578 73.5394C23.1709 73.5185 23.2054 73.4621 23.2165 73.4518C23.3225 73.3843 23.431 73.3204 23.5392 73.2573C23.7331 73.1436 23.934 73.026 24.1227 72.886C24.2818 72.7673 24.3266 72.7642 24.4874 72.8676C24.715 73.0152 24.9796 73.0919 25.2102 73.1522C26.5596 73.4974 27.9198 73.3254 29.4244 72.6197C30.7989 71.976 31.8555 70.9585 32.7931 69.9552C34.157 68.4916 35.0481 67.1711 35.5979 65.7992C35.7134 65.5113 35.7957 65.2136 35.8814 64.9023C35.9167 64.7717 35.9529 64.6411 35.9913 64.5127C36.0333 64.3748 35.9599 64.2289 35.8235 64.1808L35.7106 64.1722C35.1544 64.1722 30.1932 64.2536 27.2913 67.0663C26.66 67.6783 26.0941 68.3287 25.5775 69.0408C26.7254 66.6122 27.6989 64.0527 28.4835 61.3959L28.4949 61.357C28.5044 61.3245 28.5186 61.2753 28.528 61.262L29.287 60.2208C29.3154 60.1791 29.3187 60.1791 29.3632 60.1791C29.383 60.1791 29.4047 60.1805 29.4294 60.1819L29.5917 60.1916C30.1564 60.2267 30.4889 60.2216 30.7624 60.1788C31.843 60.0085 32.8185 59.4648 33.7441 58.5165C35.9089 56.2986 37.3991 53.5315 38.2994 50.0579C38.396 49.6858 38.423 49.31 38.4519 48.9114C38.4647 48.7308 38.4789 48.5446 38.4995 48.3522C38.5081 48.26 38.4719 48.1718 38.4024 48.1143Z" fill="#1C1D28"/>
</svg>
