<svg width="50" height="48" viewBox="0 0 50 48" fill="none" xmlns="http://www.w3.org/2000/svg">
<path d="M38.1974 30.6308L49.3763 19.7452C49.7552 19.3761 49.8921 18.8236 49.7283 18.3208C49.5647 17.8175 49.1295 17.4506 48.6054 17.3747L33.1577 15.1338L26.2481 1.15009C26.0138 0.675657 25.5302 0.375488 25.0008 0.375488C24.4713 0.375488 23.9875 0.676213 23.7535 1.15009L16.8464 15.1338L1.39623 17.3747C0.872338 17.4506 0.436923 17.8178 0.273329 18.3208C0.109456 18.8236 0.246063 19.3761 0.625278 19.7452L11.8042 30.6308L9.16667 46.0002C9.07708 46.5213 9.29159 47.0483 9.72005 47.359C10.148 47.67 10.7155 47.7112 11.1849 47.4649L25.0013 40.2095L38.8178 47.4649C39.0212 47.5719 39.2435 47.6245 39.4647 47.6245C39.7532 47.6245 40.04 47.535 40.2824 47.359C40.7108 47.0486 40.9256 46.5213 40.8358 46.0002L38.1974 30.6308Z" fill="#70C174"/>
</svg>
