<svg width="43" height="46" viewBox="0 0 43 46" fill="none" xmlns="http://www.w3.org/2000/svg">
<path fill-rule="evenodd" clip-rule="evenodd" d="M8.69023 2.47051C8.70335 1.94852 8.72364 1.4477 8.7501 0.972046H32.7501C32.7766 1.4477 32.7968 1.94852 32.81 2.47051H42.2504V3.96896C42.2504 6.91009 41.537 11.4071 39.3751 15.4732C37.2235 19.5198 33.5868 23.2124 27.7809 24.3732C26.4488 26.0469 24.7938 27.2488 22.7502 27.7219V33.9379C22.7502 37.1346 25.0835 38.5998 26.2502 38.9327H15.2502C18.0502 38.9327 18.7502 35.6029 18.7502 33.9379V27.7219C16.5902 27.2219 14.8643 25.9078 13.4949 24.0828C8.39589 22.677 5.12141 19.2274 3.12527 15.4732C0.963359 11.4071 0.25 6.91009 0.25 3.96896V2.47051H8.69023ZM8.69503 5.46741H3.3147C3.51795 7.93758 4.22454 11.1518 5.77473 14.0674C7.01676 16.4034 8.77708 18.5137 11.2428 19.9286C9.50441 15.5382 8.82085 10.0701 8.69503 5.46741ZM29.9956 20.5626C33.136 19.1953 35.2813 16.7839 36.7256 14.0674C38.2758 11.1518 38.9824 7.93758 39.1857 5.46741H32.8052C32.6732 10.2944 31.9278 16.0733 29.9956 20.5626ZM12.7502 39.9317V45.426H28.7502V39.9317H12.7502Z" fill="#70C174"/>
</svg>
